M48
; DRILL file {KiCad (6.0.7)} date Wed Oct 12 14:50:30 2022
; FORMAT={-:-/ absolute / inch / decimal}
; #@! TF.CreationDate,2022-10-12T14:50:30-05:00
; #@! TF.GenerationSoftware,Kicad,Pcbnew,(6.0.7)
; #@! TF.FileFunction,Plated,1,2,PTH
FMAT,2
INCH
; #@! TA.AperFunction,Plated,PTH,ViaDrill
T1C0.0157
; #@! TA.AperFunction,Plated,PTH,ComponentDrill
T2C0.0157
; #@! TA.AperFunction,Plated,PTH,ComponentDrill
T3C0.0236
; #@! TA.AperFunction,Plated,PTH,ComponentDrill
T4C0.0295
; #@! TA.AperFunction,Plated,PTH,ComponentDrill
T5C0.0354
%
G90
G05
T1
X2.88Y-2.74
X2.92Y-2.16
X2.92Y-2.28
X2.94Y-2.52
X2.94Y-2.64
X2.96Y-2.44
X2.975Y-2.775
X2.98Y-2.08
X3.0Y-1.98
X3.04Y-1.88
X3.08Y-1.82
X3.125Y-2.275
X3.16Y-1.8
X3.16Y-2.88
X3.175Y-2.275
X3.18Y-3.18
X3.26Y-1.96
X3.26Y-2.04
X3.26Y-2.82
X3.275Y-2.175
X3.28Y-3.18
X3.3Y-2.32
X3.3Y-2.42
X3.32Y-2.5
X3.32Y-2.78
X3.34Y-2.72
X3.36Y-3.18
X3.38Y-2.54
X3.4Y-2.3
X3.4Y-2.4
X3.42Y-1.9
X3.44Y-2.92
X3.46Y-3.18
X3.48Y-2.54
X3.5Y-1.84
X3.5Y-2.18
X3.52Y-2.84
X3.54Y-1.78
X3.56Y-3.14
X3.58Y-1.72
X3.6Y-2.76
X3.6Y-2.94
X3.62Y-1.68
X3.65Y-3.225
X3.68Y-2.14
X3.7Y-2.24
X3.72Y-2.08
X3.72Y-2.74
X3.74Y-1.88
X3.74Y-2.56
X3.74Y-3.3
X3.76Y-2.18
X3.78Y-1.66
X3.82Y-2.12
X3.82Y-2.7
X3.84Y-2.56
X3.84Y-2.78
X3.86Y-3.32
X3.88Y-3.22
X3.92Y-2.46
X3.92Y-2.96
X3.94Y-3.16
X3.94Y-3.32
X3.96Y-1.66
X3.98Y-2.52
X4.0Y-2.6
X4.02Y-2.12
X4.02Y-2.98
X4.04Y-3.3
X4.05Y-1.95
X4.06Y-3.24
X4.1Y-1.68
X4.1Y-2.6
X4.16Y-2.98
X4.18Y-2.08
X4.18Y-3.18
X4.2Y-2.5
X4.22Y-1.82
X4.22Y-1.98
X4.25Y-2.6
X4.26Y-1.7
X4.26Y-2.96
X4.28Y-3.22
X4.3Y-2.12
X4.32Y-2.02
X4.32Y-2.22
X4.32Y-2.54
X4.32Y-2.96
X4.34Y-1.88
X4.34Y-2.3
X4.34Y-3.22
X4.35Y-2.5
X4.4467Y-3.0667
X4.46Y-1.7
X4.46Y-2.0
X4.46Y-2.92
X4.46Y-3.24
X4.48Y-2.68
X4.48Y-2.76
X4.48Y-2.84
X4.52Y-3.18
X4.54Y-2.3
X4.55Y-1.95
X4.55Y-2.5
X4.56Y-2.1
X4.58Y-1.68
X4.58Y-3.16
X4.62Y-2.92
X4.65Y-2.6
X4.66Y-2.08
X4.675Y-1.825
X4.7Y-3.14
X4.74Y-1.66
X4.76Y-2.1
X4.76Y-2.3
X4.76Y-2.46
X4.775Y-2.6
X4.8Y-3.16
X4.82Y-1.82
X4.84Y-1.98
X4.85Y-2.075
X4.86Y-1.64
X4.9Y-2.6
X4.9Y-2.92
X4.92Y-2.2
X4.92Y-2.3
X4.92Y-3.2
X4.94Y-1.8
X4.94Y-2.04
X4.94Y-2.56
X4.98Y-2.46
X5.0Y-1.64
X5.025Y-2.25
X5.025Y-2.325
X5.04Y-2.94
X5.06Y-2.62
X5.06Y-2.86
X5.06Y-3.2
X5.08Y-1.96
X5.1Y-2.8
X5.12Y-1.66
X5.14Y-1.8
X5.14Y-2.92
X5.16Y-2.84
X5.18Y-2.08
X5.22Y-1.66
X5.22Y-2.9
X5.24Y-3.18
X5.26Y-2.5
X5.28Y-1.96
X5.28Y-2.88
X5.3Y-1.68
X5.3Y-2.625
X5.32Y-2.76
X5.34Y-2.12
X5.34Y-2.84
X5.36Y-2.4
X5.375Y-2.225
X5.38Y-3.14
X5.4Y-2.8
X5.44Y-1.7
X5.44Y-1.96
X5.46Y-2.08
X5.46Y-2.38
X5.48Y-2.8
X5.5Y-2.56
X5.52Y-2.5
X5.52Y-2.62
X5.52Y-3.06
X5.54Y-1.72
X5.58Y-2.98
X5.6Y-2.46
X5.62Y-2.84
X5.64Y-2.1
X5.64Y-2.26
X5.64Y-2.34
X5.66Y-1.76
X5.66Y-2.7
X5.72Y-2.84
X5.78Y-1.78
X5.82Y-2.84
X5.84Y-2.02
X5.88Y-1.8
X5.9Y-2.84
X5.98Y-2.84
X6.0Y-1.8
X6.06Y-2.84
X6.12Y-1.8
X6.14Y-1.96
X6.14Y-2.84
X6.18Y-1.84
X6.18Y-2.02
X6.22Y-2.84
X6.26Y-1.9
X6.28Y-2.0
T2
X2.9553Y-2.9329
X2.9553Y-2.9663
X2.9553Y-2.9998
X2.9553Y-3.0333
X2.9553Y-3.0667
X2.9553Y-3.1002
X2.9553Y-3.1337
X2.9553Y-3.1671
X3.0085Y-2.9329
X3.0085Y-2.9663
X3.0085Y-2.9998
X3.0085Y-3.0333
X3.0085Y-3.0667
X3.0085Y-3.1002
X3.0085Y-3.1337
X3.0085Y-3.1671
T4
X3.3206Y-1.6765
X3.3994Y-1.6765
T5
X3.0898Y-2.64
X3.1898Y-2.64
X5.1298Y-2.3
X5.2298Y-2.3
T3
G00X2.8526Y-2.8797
M15
G01X2.8211Y-2.8797
M16
G05
G00X2.8526Y-3.2203
M15
G01X2.8211Y-3.2203
M16
G05
G00X2.9994Y-2.8797
M15
G01X2.9404Y-2.8797
M16
G05
G00X2.9994Y-3.2203
M15
G01X2.9404Y-3.2203
M16
G05
T0
M30
